<?xml version="1.0" standalone="no"?>
<!DOCTYPE svg PUBLIC "-//W3C//DTD SVG 20010904//EN"
 "http://www.w3.org/TR/2001/REC-SVG-20010904/DTD/svg10.dtd">
<svg version="1.0" xmlns="http://www.w3.org/2000/svg"
 width="1148.000000pt" height="870.000000pt" viewBox="0 0 1148.000000 870.000000"
 preserveAspectRatio="xMidYMid meet">

<g transform="translate(0.000000,870.000000) scale(0.100000,-0.100000)"
fill="#000000" stroke="none">
<path d="M5280 4420 l0 -3700 400 0 400 0 0 3700 0 3700 -400 0 -400 0 0
-3700z"/>
<path d="M8880 4120 l0 -3400 400 0 400 0 0 3400 0 3400 -400 0 -400 0 0
-3400z"/>
<path d="M10080 3720 l0 -3000 400 0 400 0 0 3000 0 3000 -400 0 -400 0 0
-3000z"/>
<path d="M480 3020 l0 -2300 400 0 400 0 0 2300 0 2300 -400 0 -400 0 0 -2300z"/>
<path d="M2880 2820 l0 -2100 400 0 400 0 0 2100 0 2100 -400 0 -400 0 0
-2100z"/>
<path d="M7680 2520 l0 -1800 400 0 400 0 0 1800 0 1800 -400 0 -400 0 0
-1800z"/>
<path d="M6480 2220 l0 -1500 400 0 400 0 0 1500 0 1500 -400 0 -400 0 0
-1500z"/>
<path d="M4080 2120 l0 -1400 400 0 400 0 0 1400 0 1400 -400 0 -400 0 0
-1400z"/>
<path d="M1680 2020 l0 -1300 400 0 400 0 0 1300 0 1300 -400 0 -400 0 0
-1300z"/>
</g>
</svg>
