<?xml version="1.0" encoding="iso-8859-1"?>
<!-- Generator: Adobe Illustrator 16.0.0, SVG Export Plug-In . SVG Version: 6.00 Build 0)  -->
<!DOCTYPE svg PUBLIC "-//W3C//DTD SVG 1.1//EN" "http://www.w3.org/Graphics/SVG/1.1/DTD/svg11.dtd">
<svg version="1.1" id="Capa_1" xmlns="http://www.w3.org/2000/svg" xmlns:xlink="http://www.w3.org/1999/xlink" x="0px" y="0px"
	 width="612px" height="612px" viewBox="0 0 612 612" style="enable-background:new 0 0 612 612;" xml:space="preserve">
<g>
	<g>
		<path d="M306,153c38.417,0,69.546-31.128,69.546-69.545S344.417,13.909,306,13.909s-69.545,31.128-69.545,69.545
			S267.583,153,306,153z M306,41.727c23.033,0,41.728,18.694,41.728,41.728c0,23.033-18.694,41.727-41.728,41.727
			s-41.727-18.694-41.727-41.727C264.273,60.421,282.967,41.727,306,41.727z"/>
		<path d="M69.545,153c38.417,0,69.545-31.128,69.545-69.545s-31.128-69.545-69.545-69.545S0,45.038,0,83.455S31.128,153,69.545,153
			z M69.545,41.727c23.034,0,41.728,18.694,41.728,41.728c0,23.033-18.694,41.727-41.728,41.727
			c-23.033,0-41.727-18.694-41.727-41.727C27.818,60.421,46.512,41.727,69.545,41.727z"/>
		<path d="M542.454,598.091c38.417,0,69.546-31.129,69.546-69.546C612,490.129,580.871,459,542.454,459
			c-38.416,0-69.545,31.129-69.545,69.545C472.909,566.962,504.038,598.091,542.454,598.091z M542.454,486.818
			c23.034,0,41.728,18.693,41.728,41.727c0,23.034-18.693,41.728-41.728,41.728c-23.033,0-41.727-18.693-41.727-41.728
			C500.728,505.512,519.421,486.818,542.454,486.818z"/>
		<path d="M69.545,375.545c38.417,0,69.545-31.128,69.545-69.545s-31.128-69.545-69.545-69.545S0,267.583,0,306
			S31.128,375.545,69.545,375.545z M69.545,264.272c23.034,0,41.728,18.694,41.728,41.728c0,23.033-18.694,41.728-41.728,41.728
			c-23.033,0-41.727-18.694-41.727-41.728C27.818,282.966,46.512,264.272,69.545,264.272z"/>
		<path d="M542.454,153C580.871,153,612,121.872,612,83.455s-31.129-69.545-69.546-69.545c-38.416,0-69.545,31.128-69.545,69.545
			S504.038,153,542.454,153z M542.454,41.727c23.034,0,41.728,18.694,41.728,41.728c0,23.033-18.693,41.727-41.728,41.727
			c-23.033,0-41.727-18.694-41.727-41.727C500.728,60.421,519.421,41.727,542.454,41.727z"/>
		<path d="M306,375.545c38.417,0,69.546-31.128,69.546-69.545S344.417,236.455,306,236.455S236.455,267.583,236.455,306
			S267.583,375.545,306,375.545z M306,264.272c23.033,0,41.728,18.694,41.728,41.728c0,23.033-18.694,41.728-41.728,41.728
			S264.273,329.033,264.273,306C264.273,282.966,282.967,264.272,306,264.272z"/>
		<path d="M542.454,375.545C580.871,375.545,612,344.417,612,306s-31.129-69.545-69.546-69.545
			c-38.416,0-69.545,31.128-69.545,69.545S504.038,375.545,542.454,375.545z M542.454,264.272c23.034,0,41.728,18.694,41.728,41.728
			c0,23.033-18.693,41.728-41.728,41.728c-23.033,0-41.727-18.694-41.727-41.728C500.728,282.966,519.421,264.272,542.454,264.272z"
			/>
		<path d="M306,598.091c38.417,0,69.546-31.129,69.546-69.546C375.546,490.129,344.417,459,306,459s-69.545,31.129-69.545,69.545
			C236.455,566.962,267.583,598.091,306,598.091z M306,486.818c23.033,0,41.728,18.693,41.728,41.727
			c0,23.034-18.694,41.728-41.728,41.728s-41.727-18.693-41.727-41.728C264.273,505.512,282.967,486.818,306,486.818z"/>
		<path d="M69.545,598.091c38.417,0,69.545-31.129,69.545-69.546c0-38.416-31.128-69.545-69.545-69.545S0,490.129,0,528.545
			C0,566.962,31.128,598.091,69.545,598.091z M69.545,486.818c23.034,0,41.728,18.693,41.728,41.727
			c0,23.034-18.694,41.728-41.728,41.728c-23.033,0-41.727-18.693-41.727-41.728C27.818,505.512,46.512,486.818,69.545,486.818z"/>
	</g>
</g>
<g>
</g>
<g>
</g>
<g>
</g>
<g>
</g>
<g>
</g>
<g>
</g>
<g>
</g>
<g>
</g>
<g>
</g>
<g>
</g>
<g>
</g>
<g>
</g>
<g>
</g>
<g>
</g>
<g>
</g>
</svg>
